<?xml version="1.0" encoding="utf-8"?>
<!-- Generator: Adobe Illustrator 25.2.0, SVG Export Plug-In . SVG Version: 6.00 Build 0)  -->
<svg version="1.1" id="Layer_1" xmlns="http://www.w3.org/2000/svg" xmlns:xlink="http://www.w3.org/1999/xlink" x="0px" y="0px"
	 viewBox="0 0 60 60" style="enable-background:new 0 0 60 60;" xml:space="preserve">
<style type="text/css">
	.st0{fill:#FFFFFF;}
	.st1{fill:url(#SVGID_1_);}
	.st2{fill-rule:evenodd;clip-rule:evenodd;fill:url(#SVGID_2_);}
</style>
<g id="Layer_2_1_">
	<g id="Layer_1-2">
		<circle class="st0" cx="30" cy="29.8" r="22.6"/>
		
			<linearGradient id="SVGID_1_" gradientUnits="userSpaceOnUse" x1="0" y1="759.52" x2="60" y2="759.52" gradientTransform="matrix(1 0 0 1 0 -729.52)">
			<stop  offset="0" style="stop-color:#FFAE5A"/>
			<stop  offset="0.44" style="stop-color:#FFAE5A"/>
			<stop  offset="1" style="stop-color:#FFAE5A"/>
		</linearGradient>
		<path class="st1" d="M30,60C13.4,60,0,46.6,0,30S13.4,0,30,0s30,13.4,30,30S46.6,60,30,60z M30,3.3C15.3,3.3,3.3,15.3,3.3,30
			S15.3,56.7,30,56.7S56.7,44.7,56.7,30l0,0C56.7,15.3,44.7,3.3,30,3.3z"/>
		
			<linearGradient id="SVGID_2_" gradientUnits="userSpaceOnUse" x1="18.5519" y1="30" x2="39.2406" y2="30" gradientTransform="matrix(1 0 0 -1 0 62)">
			<stop  offset="0" style="stop-color:#FFAE5A"/>
			<stop  offset="0.44" style="stop-color:#FFAE5A"/>
			<stop  offset="1" style="stop-color:#FFAE5A"/>
		</linearGradient>
		<path class="st2" d="M44.4,29.9c-1.8,0-3.2,1.4-3.2,3.2c0,0.3,0.1,0.7,0.2,1l-10.5,5.6c-0.6-0.9-1.6-1.4-2.6-1.4
			c-1.2,0-2.3,0.7-2.9,1.8L16,35.1c-1-0.5-1.8-2.1-1.6-3.7c0.1-0.8,0.3-1.4,0.7-1.6c0.3-0.2,0.5-0.1,0.9,0.1l0.1,0.1
			c2.5,1.3,10.7,5.6,11,5.8c0.5,0.2,0.8,0.3,1.8-0.1l16.9-8.8c0.3-0.1,0.5-0.3,0.5-0.7c0-0.5-0.5-0.7-0.5-0.7
			c-1-0.4-2.5-1.2-3.9-1.8c-3.1-1.4-6.6-3.1-8.1-3.9c-1.3-0.7-2.4-0.1-2.6,0l-0.4,0.2c-7,3.5-16.2,8.1-16.7,8.4
			c-0.9,0.5-1.5,1.7-1.6,3.1c-0.1,2.2,1,4.6,2.7,5.4l10,5.2c0.2,1.5,1.6,2.7,3.1,2.7c1.8,0,3.1-1.4,3.2-3.1l11-5.9
			c0.5,0.4,1.3,0.7,2,0.7c1.8,0,3.2-1.4,3.2-3.2C47.5,31.3,46.1,29.9,44.4,29.9"/>
	</g>
</g>
</svg>
