<svg xmlns="http://www.w3.org/2000/svg" xmlns:xlink="http://www.w3.org/1999/xlink" viewBox="0 0 60 60"><defs><style>.cls-1{fill:#fff;}.cls-2{fill:url(#linear-gradient);}.cls-3{stroke-miterlimit:10;fill:url(#linear-gradient-2);stroke:url(#linear-gradient-3);}</style><linearGradient id="linear-gradient" y1="32.48" x2="60" y2="32.48" gradientTransform="matrix(1, 0, 0, -1, 0, 62.48)" gradientUnits="userSpaceOnUse"><stop offset="0" stop-color="#ffae5a"/><stop offset="0.44" stop-color="#ffae5a"/><stop offset="1" stop-color="#ffae5a"/></linearGradient><linearGradient id="linear-gradient-2" x1="15.98" y1="30.24" x2="44.02" y2="30.24" gradientTransform="matrix(1, 0, 0, 1, 0, 0)" xlink:href="#linear-gradient"/><linearGradient id="linear-gradient-3" x1="15.48" y1="30.23" x2="44.52" y2="30.23" gradientTransform="matrix(1, 0, 0, 1, 0, 0)" xlink:href="#linear-gradient"/></defs><g id="Layer_2" data-name="Layer 2"><g id="Layer_1-2" data-name="Layer 1"><circle class="cls-1" cx="29.98" cy="29.76" r="22.62"/><path class="cls-2" d="M30,60A30,30,0,1,1,60,30,30,30,0,0,1,30,60ZM30,3.33A26.67,26.67,0,1,0,56.67,30,26.7,26.7,0,0,0,30,3.33Z"/><path class="cls-3" d="M28,16.22l4,.09.09,2,1.78.1-.1,1.77-1.77.1.09,2,1.78.09L34,28.18l2,.1.1,2,2,.09.09,2,2,.1.09,1.77L42,34.07l.1-3.83,2,.09-.09,13.93-10-.09-.1-10-1.77-.09L32,32.29l-4,.1-.09,1.77-1.78.1-.09,10-10-.09.09-13.93,2,.09.09,3.83,1.77-.09.1-1.78,2-.09.09-2,2-.1.09-2,2-.09.1-5.89,1.77-.09-.09-2-1.78-.09.1-1.78,1.77-.09ZM20,37.34l2,.1-.09,1.77-2-.09.1-1.78Zm18.13,0,2,.1L40,39.21l-2-.09.09-1.78Z"/></g></g></svg>