<svg xmlns="http://www.w3.org/2000/svg" xmlns:xlink="http://www.w3.org/1999/xlink" viewBox="0 0 59.76 59.76"><defs><style>.cls-1{fill:#fff;}.cls-2{fill:url(#linear-gradient);}.cls-3{fill:url(#linear-gradient-2);}</style><linearGradient id="linear-gradient" y1="32.12" x2="59.76" y2="32.12" gradientTransform="matrix(1, 0, 0, -1, 0, 62)" gradientUnits="userSpaceOnUse"><stop offset="0" stop-color="#ffae5a"/><stop offset="0.44" stop-color="#ffae5a"/><stop offset="1" stop-color="#ffae5a"/></linearGradient><linearGradient id="linear-gradient-2" x1="20.51" y1="29.52" x2="39.25" y2="29.52" gradientTransform="matrix(1, 0, 0, 1, 0, 0)" xlink:href="#linear-gradient"/></defs><g id="Layer_2" data-name="Layer 2"><g id="Layer_1-2" data-name="Layer 1"><circle class="cls-1" cx="29.98" cy="29.52" r="22.62"/><path class="cls-2" d="M29.88,59.76A29.88,29.88,0,1,1,59.76,29.88,29.91,29.91,0,0,1,29.88,59.76Zm0-56.44A26.56,26.56,0,1,0,56.44,29.88,26.59,26.59,0,0,0,29.88,3.32Z"/><path class="cls-3" d="M29.19,15.56h2.06a8,8,0,0,1,8,8V43.49a0,0,0,0,1,0,0H20.51a0,0,0,0,1,0,0V24.23a8.67,8.67,0,0,1,8.67-8.67Z"/></g></g></svg>